<?xml version="1.0" encoding="utf-8"?>
<!-- Generator: Adobe Illustrator 23.0.1, SVG Export Plug-In . SVG Version: 6.00 Build 0)  -->
<svg version="1.1" id="Layer_1" xmlns="http://www.w3.org/2000/svg" xmlns:xlink="http://www.w3.org/1999/xlink" x="0px" y="0px"
	 viewBox="0 0 2900.4 384.4" style="enable-background:new 0 0 2900.4 384.4;" xml:space="preserve">
<style type="text/css">
	.st0{fill:#072B61;}
	.st1{fill:#0A57A4;}
	.st2{fill:#FFFFFF;}
	.st3{fill:#E95420;}
	.st4{clip-path:url(#SVGID_1_);}
	.st5{fill:#73BA25;}
	.st6{fill:none;stroke:#000000;stroke-width:2;stroke-miterlimit:10;}
</style>
<g>
	<path class="st0" d="M2897.7,88.2c0-46.6-38.3-84.9-85.4-84.9c-47.1,0-84.9,38.3-84.9,84.9l0,0v66.2l0,0c0,10.3,8.3,19.1,19.1,19.1
		l0,0l0,0h65.7C2859.5,173.6,2897.7,135.3,2897.7,88.2"/>
	<path class="st1" d="M2837.7,23.5c-22.2,0-40.4,18.1-40.4,39.8v21.2h-21.2c-21.7,0-39.8,17.6-39.8,39.8s18.1,39.8,39.8,39.8
		c22.2,0,40.4-17.6,40.4-39.8v-21.2h21.2c21.7,0,39.8-17.6,39.8-39.8C2877.6,41.6,2859.5,23.5,2837.7,23.5z M2837.7,42.2
		c11.4,0,20.7,9.8,20.7,21.2c0,11.9-9.3,21.2-20.7,21.2h-0.5h-17.6c-2.1,0-3.1-1.6-3.1-3.1V63.4C2816.5,52,2825.8,42.2,2837.7,42.2z
		 M2289.2,96c-8.3,0-15,6.2-15,15v79.7c-7.8-14-24.3-23.8-44.5-23.8c-40.4,0-67.3,30.5-67.3,70.9c0,40.9,27.9,71.4,67.3,71.4
		c17.6,0,33.1-7.2,41.9-20.2l3.6,8.8c2.1,5.7,7.8,9.8,14.5,9.8c8.3,0,15-6.7,15-15l0,0V111C2304.8,102.2,2298,96,2289.2,96z
		 M1979.8,96c-31.6,0-56.9,25.9-56.9,56.9V171h-18.6c-6.7,0-12.4,5.7-12.4,12.4c0,6.7,5.7,13.5,12.4,13.5h18.6v95.7
		c0,8.3,6.7,15,15,15c8.8,0,15.5-6.7,15.5-15v-95.7h20.2c7.2,0,12.9-6.7,12.9-13.5c0-6.7-5.7-12.4-12.9-12.4h-20.2v-18.1
		c0-14.5,11.9-28.5,26.4-28.5c1.6,0,2.6,0,4.1,0.5c8.3,1,16-2.6,17.1-10.9c1.6-8.3-4.7-16-12.9-17.1
		C1985.5,96.5,1982.4,96,1979.8,96z M2776.1,103.2h18.1c2.1,0,3.1,1.6,3.1,3.1v18.1c0,11.9-9.3,21.2-21.2,21.2
		c-11.4,0-21.2-9.3-21.2-21.2C2754.9,113.1,2764.8,103.2,2776.1,103.2z M2873.9,153.4v1h1.6v4.7h1v-4.7h1.6v-1H2873.9z
		 M2878.6,153.4v5.7h1V156v-0.5v0.5l1.6,3.1l1.6-3.1v-1v1v3.1h1v-5.7h-1l-1,2.6l-0.5,1v-1l-1.6-2.6H2878.6z M2069.3,166.9
		c-39.8,0-70.4,31.6-70.4,70.9c0,39.8,31.6,71.4,70.9,71.4c21.7,0,44-9.3,56.9-23.3c2.6-3.1,4.1-6.7,4.7-9.8c0-2.6-1-5.2-2.6-7.2
		c-2.6-3.1-6.2-5.2-10.3-5.2c-2.6,0-5.2,0.5-7.2,2.6c-10.9,10.9-24.3,17.6-40.4,17.6c-22.2,0-38.8-16-40.4-36.7
		c95.7,0,95.7,0,95.7,0c5.7,0,11.4-3.6,11.4-9.8C2137.6,197.4,2108.1,166.9,2069.3,166.9z M2400.5,166.9
		c-39.8,0-71.4,31.6-71.4,70.9c0,39.8,31.6,71.4,71.4,71.4c39.3,0,70.9-31.6,70.9-71.4C2471.4,198.4,2439.8,166.9,2400.5,166.9z
		 M2573.8,166.9c-20.7,0-34.7,6.2-46.6,21.7l-1.6-7.2c-1-7.8-7.2-13.5-15-13.5c-8.3,0-15,6.7-15,15.5l0,0v109.2c0,8.3,6.7,15,15,15
		c8.3,0,15.5-6.7,15.5-15v-58.5c0-26.9,22.8-40.4,47.6-40.4c7.2,0,13.5-6.2,13.5-13.5C2587.3,172.6,2581.1,166.9,2573.8,166.9z
		 M2663.3,166.9c-39.8,0-71.4,31.6-71.4,70.9c0,39.8,31,71.4,68.3,71.4c19.1,0,35.7-9.8,42.9-19.7l4.1,9.3c1.6,5.2,6.7,8.8,12.9,8.8
		c7.8,0,14-6.2,14-14v-36.2v-19.7C2734.2,200,2707.3,166.9,2663.3,166.9z M2069.3,192.2c20.2,0,35.2,14.5,37.8,33.6
		c0,0-29.5,0-76.1,0C2034.1,206.2,2048.1,192.2,2069.3,192.2z M2233.9,193.8c24.8,0,40.4,19.1,40.4,44c0,25.4-15.5,44-40.4,44
		c-24.8,0-40.9-19.7-40.9-44C2193,214,2209,193.8,2233.9,193.8z M2400.5,193.8c24.3,0,40.9,20.2,40.9,44c0,24.3-16.6,44-40.9,44
		c-24.8,0-41.4-19.7-41.4-44C2359.1,214,2375.7,193.8,2400.5,193.8z M2663.3,193.8c24.8,0,40.9,20.2,40.9,44c0,24.3-16,44-40.9,44
		c-24.8,0-40.9-19.7-40.9-44C2622.5,214,2638.5,193.8,2663.3,193.8z M2738.4,288.5v1h1.6v4.7h1v-4.7h1.6v-1H2738.4z M2743,288.5v5.7
		h1v-3.1v-0.5l0.5,0.5l1,3.1l1.6-3.1v-0.5v0.5v3.1h1v-5.7h-1l-1,2.6l-0.5,1v-1l-1.6-2.6H2743z"/>
	<path class="st2" d="M2797.4,84.6V63.4l0,0c0-21.7,18.1-39.8,39.8-39.8c3.6,0,5.7,0.5,8.8,1c4.7,1.6,8.3,5.2,8.3,9.3
		c0,5.2-3.6,8.8-9.3,8.8c-2.6,0-3.6-0.5-7.8-0.5c-11.4,0-20.7,9.8-20.7,21.2v18.1l0,0c0,2.1,1,3.1,2.6,3.1l0,0h14
		c5.2,0,9.3,4.1,9.3,9.3c0,5.2-4.1,9.3-9.3,9.3h-16.6v21.2l0,0c0,22.2-18.1,39.8-40.4,39.8c-3.1,0-5.7,0-8.8-1
		c-4.1-1-7.8-4.7-7.8-9.3c0-5.2,3.6-8.8,9.3-8.8c2.6,0,3.6,0.5,7.2,0.5c11.9,0,21.2-9.3,21.2-21.2v-18.1c0-1.6-1-3.1-3.1-3.1l0,0
		h-13.5c-5.2,0-9.3-4.1-9.3-9.3c0-5.2,4.1-9.3,9.3-9.3H2797.4"/>
</g>
<g>
	<g>
		<g>
			<path d="M121.8,313c-5.8,1.4-13.4,3-22.9,4.6c-9.5,1.6-20.5,2.4-32.9,2.4c-10.8,0-20-1.6-27.4-4.7c-7.4-3.2-13.4-7.6-17.9-13.4
				c-4.5-5.8-7.8-12.6-9.8-20.5c-2-7.9-3-16.6-3-26.2v-79.2h25.2v73.7c0,17.2,2.7,29.5,8.1,36.9c5.4,7.4,14.5,11.1,27.4,11.1
				c2.7,0,5.5-0.1,8.4-0.3c2.9-0.2,5.6-0.4,8.1-0.7c2.5-0.3,4.8-0.5,6.9-0.8c2.1-0.3,3.6-0.6,4.5-0.9v-119h25.2L121.8,313L121.8,313
				z"/>
			<path d="M183.3,182.3c3.1-2,7.7-4.1,14-6.2c6.2-2.2,13.4-3.3,21.6-3.3c10.1,0,19.1,1.8,27,5.4c7.9,3.6,14.5,8.7,19.9,15.2
				c5.4,6.5,9.5,14.3,12.3,23.3c2.8,9,4.2,19,4.2,29.8c0,11.4-1.7,21.6-5,30.8c-3.3,9.1-8.1,16.9-14.2,23.2
				c-6.1,6.3-13.6,11.2-22.2,14.6c-8.7,3.4-18.4,5.2-29.3,5.2c-11.7,0-22.1-0.8-31.2-2.4c-9-1.6-16.4-3.3-22.2-4.9V111l25.2-4.3
				L183.3,182.3L183.3,182.3z M183.3,295.1c2.5,0.7,6.1,1.4,10.7,2c4.6,0.6,10.3,0.9,17.2,0.9c13.6,0,24.4-4.5,32.5-13.4
				c8.1-8.9,12.2-21.6,12.2-38.1c0-7.2-0.7-14-2.2-20.3c-1.4-6.3-3.8-11.8-7-16.4c-3.3-4.6-7.5-8.2-12.6-10.8
				c-5.2-2.6-11.3-3.9-18.6-3.9c-6.9,0-13.2,1.2-19,3.5c-5.8,2.4-10.2,4.8-13.3,7.3V295.1z"/>
			<path d="M422.9,313c-5.8,1.4-13.4,3-22.9,4.6c-9.5,1.6-20.5,2.4-32.9,2.4c-10.8,0-20-1.6-27.4-4.7c-7.4-3.2-13.4-7.6-17.9-13.4
				c-4.5-5.8-7.8-12.6-9.8-20.5c-2-7.9-3-16.6-3-26.2v-79.2h25.2v73.7c0,17.2,2.7,29.5,8.1,36.9c5.4,7.4,14.5,11.1,27.4,11.1
				c2.7,0,5.5-0.1,8.4-0.3c2.9-0.2,5.6-0.4,8.1-0.7c2.5-0.3,4.8-0.5,6.9-0.8c2.1-0.3,3.6-0.6,4.5-0.9v-119h25.2L422.9,313L422.9,313
				z"/>
			<path d="M459.3,180.1c5.8-1.4,13.5-3,23-4.6c9.6-1.6,20.6-2.4,33.1-2.4c11.2,0,20.5,1.6,27.9,4.7c7.4,3.2,13.3,7.6,17.8,13.3
				c4.4,5.7,7.5,12.5,9.4,20.5c1.8,8,2.7,16.7,2.7,26.3V317h-25.2v-73.7c0-8.7-0.6-16.1-1.8-22.2c-1.2-6.1-3.1-11.1-5.8-14.9
				c-2.7-3.8-6.3-6.6-10.8-8.3c-4.5-1.7-10.1-2.6-16.8-2.6c-2.7,0-5.5,0.1-8.4,0.3c-2.9,0.2-5.6,0.4-8.3,0.7c-2.6,0.3-5,0.6-7,0.9
				c-2.1,0.4-3.6,0.6-4.5,0.8v119h-25.2L459.3,180.1L459.3,180.1z"/>
			<path d="M631.4,176.1h53.4v21.1h-53.4v65.1c0,7,0.5,12.9,1.6,17.5c1.1,4.6,2.7,8.2,4.9,10.8c2.2,2.6,4.9,4.5,8.1,5.6
				c3.3,1.1,7,1.6,11.4,1.6c7.8,0,13.9-0.9,18.4-2.6c4.5-1.7,7.6-2.9,9.2-3.7l5.4,20.6c-2.5,1.3-7,2.9-13.4,4.9
				c-6.4,2-13.7,3-21.8,3c-9.6,0-17.5-1.2-23.7-3.7c-6.2-2.4-11.3-6.1-15-11c-3.8-4.9-6.5-10.9-8-18c-1.5-7.1-2.3-15.4-2.3-24.8
				V136.8l25.2-4.3L631.4,176.1L631.4,176.1z"/>
			<path d="M822,313c-5.8,1.4-13.4,3-22.9,4.6c-9.5,1.6-20.5,2.4-32.9,2.4c-10.8,0-20-1.6-27.4-4.7c-7.4-3.2-13.4-7.6-17.9-13.4
				c-4.5-5.8-7.8-12.6-9.8-20.5c-2-7.9-3-16.6-3-26.2v-79.2h25.2v73.7c0,17.2,2.7,29.5,8.1,36.9c5.4,7.4,14.5,11.1,27.4,11.1
				c2.7,0,5.5-0.1,8.4-0.3c2.9-0.2,5.6-0.4,8.1-0.7c2.5-0.3,4.8-0.5,6.9-0.8c2.1-0.3,3.6-0.6,4.5-0.9v-119H822V313z"/>
		</g>
		<g>
			<circle class="st3" cx="902.2" cy="163.6" r="56.9"/>
			<path class="st2" d="M872.7,163.6c0,4-3.3,7.3-7.3,7.3c-4,0-7.3-3.3-7.3-7.3c0-4,3.3-7.3,7.3-7.3
				C869.4,156.3,872.7,159.5,872.7,163.6z M914.3,199.2c2,3.5,6.5,4.7,10,2.7c3.5-2,4.7-6.5,2.7-10c-2-3.5-6.5-4.7-10-2.7
				C913.5,191.2,912.3,195.7,914.3,199.2z M927,135.3c2-3.5,0.8-8-2.7-10c-3.5-2-8-0.8-10,2.7c-2,3.5-0.8,8,2.7,10
				C920.5,140,925,138.8,927,135.3z M902.2,142.7c10.9,0,19.9,8.4,20.8,19l10.6-0.2c-0.5-7.9-3.9-15.1-9.2-20.3
				c-2.8,1.1-6.1,0.9-8.9-0.7c-2.8-1.6-4.6-4.4-5-7.3c-2.6-0.7-5.4-1.1-8.3-1.1c-5,0-9.7,1.2-13.9,3.3l5.2,9.3
				C896.1,143.4,899.1,142.7,902.2,142.7z M881.3,163.6c0-7.1,3.5-13.3,8.9-17.1l-5.4-9.1c-6.3,4.2-11,10.6-13,18.1
				c2.3,1.9,3.8,4.8,3.8,8c0,3.2-1.5,6.1-3.8,8c2,7.5,6.7,13.9,13,18.1l5.4-9.1C884.8,176.9,881.3,170.6,881.3,163.6z M902.2,184.5
				c-3.1,0-6.1-0.7-8.8-1.9l-5.2,9.3c4.2,2.1,8.9,3.3,13.9,3.3c2.9,0,5.6-0.4,8.3-1.1c0.5-3,2.2-5.7,5-7.3c2.8-1.6,6.1-1.8,8.9-0.7
				c5.3-5.3,8.7-12.4,9.2-20.3l-10.6-0.2C922.1,176.1,913.1,184.5,902.2,184.5z"/>
		</g>
	</g>
</g>
<g id="g12">
	<g>
		<defs>
			<rect id="SVGID_3_" x="1149.5" y="19.6" width="582.2" height="364.4"/>
		</defs>
		<clipPath id="SVGID_1_">
			<use xlink:href="#SVGID_3_"  style="overflow:visible;"/>
		</clipPath>
		<g id="g14" class="st4">
			<g id="g20" transform="translate(262.6839,162.7228)">
				<path id="path22" class="st5" d="M1364.7-74.8c0.3-8.6,3.9-16.6,10.2-22.4c6.3-5.9,14.5-8.9,23.1-8.6
					c17.8,0.6,31.7,15.6,31.1,33.4c-0.3,8.6-3.9,16.6-10.2,22.4c-6.3,5.9-14.5,9-23.1,8.7C1378.1-42.1,1364.2-57,1364.7-74.8z
					 M1450.9-43c1.5-1,2.5-1.8,3-1.9l0.5-0.8c-1.2-7.8-12.8-45.5-21.6-54.6c-2.4-2.5-4.4-4.9-8.3-7.2
					c-31.8-18.5-107.1-29.7-110.6-30.2l-0.6,0.2l-0.2,0.5c0,0-0.3,15.6-0.3,17.4c-7.7-2.6-63.6-20.7-116.1-22.5
					c-44.5-1.6-109.2-7.3-195,45.4l-2.5,1.6c-40.4,25.2-68.2,56.2-82.8,92.3c-4.6,11.4-10.7,37-4.6,61.1
					c2.6,10.5,7.5,21.1,14.1,30.6c14.9,21.4,39.9,35.6,66.9,38c38,3.4,66.8-13.7,77.1-45.7c7-22.1,0-54.4-27-71
					c-22-13.4-45.6-10.4-59.3-1.3c-11.9,7.9-18.6,20.1-18.5,33.6c0.3,23.9,20.8,36.5,35.6,36.6c4.3,0,8.6-0.7,13.5-2.3
					c1.7-0.5,3.4-1.2,5.2-2.3l0.6-0.3l0.4-0.2l-0.1,0.1c3.4-2.3,5.4-6,5.4-10c0-1.1-0.2-2.2-0.5-3.3c-1.7-6-7.7-9.7-13.9-8.6
					l-0.8,0.2l-1.1,0.3l-1.6,0.6c-3.4,0.8-5.9,0.9-6.5,0.9c-1.7-0.1-10.2-2.7-10.2-12V42c0-3.4,1.4-5.8,2.1-7.1
					c2.6-4.1,9.9-8.2,19.7-7.4c12.8,1.1,22.1,7.7,28.2,20.1c5.7,11.6,4.2,25.8-3.8,36.2c-8,10.3-22.2,14.7-41.1,12.7
					c-19.1-2.1-35.2-13.1-44.2-30.2c-8.8-16.7-9.3-36.5-1.2-51.7C969.6-21.9,1006-21.5,1026-18c29.6,5.1,63.2,32.4,75.2,63.9
					c1.9,5,2.9,9,3.8,12.6l1.3,5.4l33.4,16.3l0.4,0.3l0.8-0.1l0.1-1c-0.2-0.7-0.7-1.4-1.5-10.8c-0.6-8.3-1.9-31,9.5-42.3
					c4.4-4.4,11.2-8.3,16.6-9.6c21.9-5.4,47.6-1.7,71.9,26.5c12.6,14.5,18.7,21.1,21.8,24.1l1.1,1l1.3,0.9
					c1,0.5,41.8,19.3,41.8,19.3l0.8-0.2l0-0.9c-0.3-0.3-25.8-33.3-21.3-60.5c3.6-21.7,20.8-19.7,44.7-17c7.8,0.9,16.6,1.9,25.8,2.1
					c25.6,0.2,53.2-4.6,70.2-12c11-4.8,18-8,22.4-12c1.6-1.3,2.4-3.4,3.3-5.7l0.6-1.5c0.7-1.9,1.8-5.8,2.2-7.9
					c0.2-0.9,0.3-1.9-0.4-2.5l-2.4,0.4c-7.5,4.5-26.1,13-43.6,13.4c-21.7,0.4-65.3-21.8-69.9-24.2l-0.4-0.5
					c-1.1-2.6-7.6-18.1-9-21.4c31.4,20.7,57.5,32.1,77.4,33.9C1426.2-25.7,1443.5-37.9,1450.9-43L1450.9-43L1450.9-43z M1401.5-71.8
					c-5.5,0-10-3-10-6.6c0-3.7,4.5-6.7,10-6.7c5.5,0,10,3,10,6.7C1411.5-74.8,1407-71.8,1401.5-71.8 M1397.8-96.4
					c-6-0.2-11.7,1.9-16.1,6c-4.4,4.1-6.9,9.6-7.1,15.6c-0.4,12.4,9.3,22.8,21.7,23.3c6,0.2,11.8-1.9,16.2-6
					c4.4-4.1,6.9-9.7,7.1-15.6C1419.9-85.5,1410.2-95.9,1397.8-96.4z"/>
			</g>
			<g id="g24" transform="translate(133.9789,60.2888)">
				<path id="path26" class="st5" d="M1259.3,214c-14.2,0-21.9,12-21.9,20.2v10.6c0,12.2,10,19.7,19.2,19.7h32.4
					c4.1,0,4.9,2.7,4.9,4.9v6.9c0,0.7-0.1,7.3-4.9,7.3h-44.2c-4.4,0-7.6,3.1-7.6,7.2v1.9c0,4.2,3.2,7.2,7.6,7.2h46.6
					c12.2,0,20-8.5,20-21.6V267c0-12.3-8.9-17.8-17.7-17.8h-31.9c-4.8,0-7-3.6-7-6.1v-6.3c0-4,2.7-6.3,7.3-6.3h35.3
					c4.3,0,7.6-3.1,7.6-7.2v-1.9c0-4.1-3.3-7.2-7.7-7.2H1259.3z"/>
			</g>
			<g id="g28" transform="translate(206.8412,60.2888)">
				<path id="path30" class="st5" d="M1319,214c-4.2,0-7.6,3.4-7.6,7.6v54.3c0,4.3-3.5,7.8-7.8,7.8H1279c-4.3,0-7.8-3.5-7.8-7.8
					v-54.3c0-4.2-3.4-7.6-7.6-7.6h-2.4c-4.2,0-7.6,3.4-7.6,7.6V278c0,13.1,10.3,22.6,24.5,22.6h26.4c14.2,0,24.5-9.5,24.5-22.6
					v-56.3c0-4.2-3.3-7.6-7.6-7.6H1319z"/>
			</g>
			<g id="g32" transform="translate(232.7736,60.2888)">
				<path id="path34" class="st5" d="M1340.2,214c-14.2,0-22,12-22,20.2v10.6c0,12.2,10,19.7,19.2,19.7h32.4c4.1,0,4.9,2.7,4.9,4.9
					v6.9c0,0.7-0.1,7.3-4.9,7.3h-44.2c-4.4,0-7.6,3.1-7.6,7.2v1.9c0,4.2,3.2,7.2,7.6,7.2h46.6c12.2,0,20.1-8.5,20.1-21.6V267
					c0-12.3-8.9-17.8-17.7-17.8h-31.9c-4.8,0-7-3.6-7-6.1v-6.3c0-4,2.7-6.3,7.3-6.3h35.3c4.3,0,7.6-3.1,7.6-7.2v-1.9
					c0-4.1-3.3-7.2-7.8-7.2H1340.2z"/>
			</g>
			<g id="g36" transform="translate(273.7386,60.2888)">
				<path id="path38" class="st5" d="M1373.8,214c-4.2,0-7.4,3.1-7.4,7.2v71.6c0,4.1,3.1,7.2,7.2,7.2h57.1c4.4,0,7.6-3,7.6-7.2V291
					c0-4.2-3.2-7.2-7.6-7.2H1384v-18.2h34.2c4.4,0,7.6-3.1,7.6-7.2v-1.9c0-4.2-3.2-7.2-7.6-7.2H1384v-18.8h44.4c4.4,0,7.6-3,7.6-7.2
					v-1.9c0-4.2-3.2-7.2-7.6-7.2L1373.8,214L1373.8,214z"/>
			</g>
			<g id="g40" transform="translate(5.0529,20.4885)">
				<path id="path42" class="st5" d="M1153.7,326.2v-24.7c0-2.9,2.4-5.3,5.3-5.3h13.6c2.8,0,5.3,2.4,5.3,5.3v24.7
					c0,2.9-2.4,5.3-5.3,5.3h-13.7C1155.9,331.5,1153.7,329.2,1153.7,326.2 M1157.5,287.9c-7.2,0-13,5.6-13,12.4v27
					c0,7,5.6,12.6,12.5,12.6h17.5c6.9,0,12.5-5.7,12.5-12.6v-27c0-6.9-5.8-12.4-13-12.4H1157.5
					C1157.5,287.9,1157.5,287.9,1157.5,287.9z"/>
			</g>
			<g id="g44" transform="translate(35.5085,20.7779)">
				<path id="path46" class="st5" d="M1178.6,325.4v-23.6c0-3.3,2.5-5.8,5.8-5.8h12.8c3.3,0,5.8,2.5,5.8,5.8v23.6
					c0,3.2-2.6,5.8-5.8,5.8h-12.8C1181.2,331.2,1178.6,328.6,1178.6,325.4z M1196.1,287.3c-5,0-8.8,1.8-11.9,3.3
					c-1.9,0.9-3.5,1.7-4.7,1.7c-0.6,0-1-0.3-1.3-0.7l-1.2-2.2c-0.3-0.6-1.5-1.7-2.9-1.7h-1.7c-1.7,0-3,1.5-3,3.3v68.5
					c0,2.1,1.7,3.8,3.8,3.8h1.5c2.1,0,3.9-1.7,3.9-3.8v-22.7c0-0.7,0.4-1.4,0.9-1.4c1.2,0,2.9,0.7,4.7,1.6c3,1.4,6.8,3.1,11.9,3.1
					h1.6c8.9,0,14.5-5.1,14.5-13.3v-26.1c0-8.1-5.7-13.3-14.5-13.3L1196.1,287.3C1196.1,287.3,1196.1,287.3,1196.1,287.3z"/>
			</g>
			<g id="g48" transform="translate(66.0714,34.088)">
				<path id="path50" class="st5" d="M1203.7,287.9c0-2.9,2.3-5.2,5.2-5.2h14c2.9,0,5.1,2.3,5.1,5.2v8.4h-24.3
					C1203.7,295.2,1203.7,287.9,1203.7,287.9z M1207.4,274.3c-7.2,0-13,5.6-13,12.4v26.8c0,6.9,5.6,12.8,12.3,12.8h18
					c2.2,0,3.8-1.5,3.8-3.6v-1.2c0-2.1-1.6-3.6-3.8-3.6H1210c-4.1,0-6.3-2-6.3-5.9v-7.8h26.7c4.3,0,6.8-2.6,6.8-7.1v-10.4
					c0-6.9-5.8-12.4-12.9-12.4L1207.4,274.3C1207.4,274.3,1207.4,274.3,1207.4,274.3z"/>
			</g>
			<g id="g52" transform="translate(104.8947,41.74)">
				<path id="path54" class="st5" d="M1235.5,266.3c-5,0-8.8,1.8-11.9,3.3c-1.9,0.9-3.5,1.7-4.9,1.7c-0.6,0-0.8-0.1-1.3-0.9
					l-1.1-1.9c-0.6-1.2-1.6-1.8-3-1.8h-1.5c-1.8,0-3.1,1.4-3.1,3.3v44.9c0,2.1,1.7,3.8,3.8,3.8h1.5c2.1,0,3.9-1.7,3.9-3.8v-34
					c0-3.2,2.6-5.8,5.8-5.8h12.8c3.2,0,5.8,2.6,5.8,5.8v34c0,2.1,1.7,3.8,3.8,3.8h1.5c2.1,0,3.9-1.7,3.9-3.8v-35.3
					c0-8.1-5.7-13.3-14.5-13.3H1235.5z"/>
			</g>
			<g id="g56" transform="translate(315.4154,18.754)">
				<path id="path58" class="st5" d="M1407.9,331.1h0.9c1,0,1.9-0.4,1.9-1.4c0-0.7-0.5-1.4-1.9-1.4c-0.4,0-0.7,0-0.9,0.1V331.1z
					 M1407.9,335.5h-1.3v-7.9c0.7-0.1,1.3-0.2,2.2-0.2c1.2,0,2,0.3,2.5,0.6c0.5,0.3,0.7,0.9,0.7,1.6c0,1-0.7,1.7-1.5,1.9v0.1
					c0.7,0.1,1.2,0.8,1.3,1.9c0.2,1.2,0.4,1.7,0.5,2h-1.3c-0.2-0.3-0.4-1-0.5-2c-0.2-1-0.7-1.4-1.7-1.4h-0.9L1407.9,335.5
					C1408,335.5,1407.9,335.5,1407.9,335.5z M1409.3,325.4c-3.1,0-5.7,2.7-5.7,6c0,3.4,2.6,6,5.7,6c3.2,0,5.7-2.7,5.7-6
					C1415,328.1,1412.5,325.4,1409.3,325.4C1409.3,325.4,1409.3,325.4,1409.3,325.4z M1409.3,324.3c3.9,0,7,3.2,7,7.1
					c0,4-3.1,7.1-7,7.1c-3.9,0-7-3.1-7-7.1C1402.2,327.4,1405.4,324.3,1409.3,324.3C1409.3,324.3,1409.3,324.3,1409.3,324.3z"/>
			</g>
		</g>
	</g>
</g>
<line class="st6" x1="1045" y1="42.2" x2="1045" y2="384"/>
<line class="st6" x1="1809.3" y1="42.6" x2="1809.3" y2="384.4"/>
</svg>
