<?xml version="1.0" encoding="utf-8"?>
<!-- Generator: Adobe Illustrator 23.0.1, SVG Export Plug-In . SVG Version: 6.00 Build 0)  -->
<svg version="1.1" id="Layer_1" xmlns="http://www.w3.org/2000/svg" xmlns:xlink="http://www.w3.org/1999/xlink" x="0px" y="0px"
	 viewBox="0 0 1980.6 888.4" style="enable-background:new 0 0 1980.6 888.4;" xml:space="preserve">
<style type="text/css">
	.st0{fill:url(#SVGID_1_);}
	.st1{fill:none;stroke:#A6A6A6;stroke-width:25;stroke-linecap:round;stroke-miterlimit:10;}
	.st2{fill:url(#SVGID_2_);}
	.st3{fill:url(#SVGID_3_);}
	.st4{fill:url(#SVGID_4_);}
	.st5{fill:url(#SVGID_5_);}
	.st6{fill:url(#SVGID_6_);}
</style>
<linearGradient id="SVGID_1_" gradientUnits="userSpaceOnUse" x1="885.9643" y1="436.7296" x2="1592.1606" y2="436.7296">
	<stop  offset="0" style="stop-color:#0876CA"/>
	<stop  offset="0.5698" style="stop-color:#47E6FE"/>
</linearGradient>
<path class="st0" d="M1232.9,421c0-8.6,0-17.1,0-25.7c-0.1-12.4-0.2-24.7-0.4-37.1c-0.2-9.5,3.7-11.1,11.2-11.3
	c3.7-0.1,7.4,0.5,11.1,0.5c20.8,0.1,41.7,0,62.5,0c14.9,0,29.9-0.1,44.8,0c5.8,0,11.5,0.3,17.3,0.6c3.6,0.2,5.5,2.1,5.3,5.8
	c-0.2,3.3-0.8,6.5-1.5,9.7c-0.7,3.1-3.1,4.8-6,4.9c-6.1,0.1-12.3-0.4-18.4-0.7c-3.7-0.2-7.4-0.7-11-0.8c-11.4-0.2-22.9-0.1-34.3-0.2
	c-8.2-0.1-10.1,2-11,11c-2.3,24-1.8,48-1.7,72c0.1,11.9,0.7,23.9,1.2,35.8c0.1,2.4,0.5,4.9,1,7.3c0.6,3.2,2.9,4.7,5.8,5
	c3.2,0.4,6.3,0.6,9.5,0.6c8.7,0.1,17.3,0.1,26,0c13.6-0.1,27.2-0.3,40.8-0.6c9.2-0.2,18.5-0.7,27.7-1.2c6.3-0.3,8.8-2.3,9.6-8.5
	c0.5-4.2,0.6-8.5,0-12.6c-1-7.8-4-8.2-10.2-8.3c-7.9-0.2-15.7,1-23.6,1.5c-3.3,0.2-6.6,0.2-9.9,0.1c-13.6-0.2-27.2-0.4-40.8-0.6
	c-5.9-0.1-8.8-2.8-8.7-8.6c0.2-18.8,0.4-37.5,0.6-56.3c0-3.7,2-6.2,5.7-6.2c4.6,0,9.2,0.5,13.8,0.8c1.2,0.1,2.5,0.3,3.7,0.3
	c20.5,0.2,41,0.3,61.6,0.7c10.7,0.2,21.3,1.2,32,1.7c6.2,0.3,12.3,0.4,18.5,0.7c14.9,0.8,29.8,1.6,44.7,2.4c9,0.5,18.1,0.8,27.1,1.3
	c10.3,0.6,20.5,1.4,30.8,2.1c10.6,0.7,21.1,1.4,31.7,2.2c13.2,1,26.5,1.8,39.7,3.1c5,0.5,6.3,3.1,5.9,8.4c-0.4,4.8-3.1,7.7-7.6,7.7
	c-4.5,0-9-0.3-13.6-0.6c-4.6-0.3-9.2-0.8-13.8-1.1c-10-0.5-20-0.9-30-1.4c-13.2-0.7-26.5-1.6-39.7-2.4c-5.6-0.3-11.3-0.6-17-0.7
	c-11.1-0.3-22.3-0.3-33.4-0.7c-17.6-0.5-35.2-1.2-52.8-1.8c-8.4-0.3-16.8-0.4-25.2-0.6c-17.8-0.4-35.6-0.9-53.4-1.2
	c-3.9-0.1-8.2,0.4-9.5,5c-1.9,6.4-1.7,12.9-0.1,19.4c0.8,2.9,3.1,4.1,5.7,4.5c2.9,0.5,5.9,0.6,8.9,0.7c15.1,0.3,30.1,0.6,45.2,0.6
	c7.2,0,14.4-0.6,21.6-1.2c6.2-0.5,10.2,1.3,11,5.5c0.4,2.3,0.7,4.7,0.7,7.1c0,13.9,0,27.8,0,41.8c0,2.5-0.2,4.9-0.6,7.4
	c-0.6,3.8-4,6.2-8.7,6.4c-6,0.2-11.9,0.4-17.9,0.6c-16.5,0.6-32.9,1.3-49.4,1.9c-4.5,0.2-9.1-0.1-13.6,0
	c-19.9,0.4-39.8,0.8-59.6,1.2c-6,0.1-8.5-2.3-8.6-8.3c-0.1-6.8,0.1-13.6,0-20.4c-0.4-27.8-1-55.6-1.2-83.5
	c-0.1-10.3,0.9-20.5,1.2-30.8c0.2-6.8-2.4-9.3-9.2-9.3c-4.2,0-8.5,0-12.7,0c-6.6,0-9.3,2.6-9.6,9.2c0,0.2,0,0.4,0,0.6
	c-0.2,23-0.5,46-0.5,69c0,19.8,0.5,39.6,0.8,59.4c0,2.6-0.1,5.2-0.3,7.7c-0.3,3.6-2.4,5.8-5.9,5.7c-9.5-0.3-18.9-0.8-28.4-1
	c-3.8-0.1-7.6,0.1-11.4,0.7c-3.7,0.6-5.4,3.2-5.6,7.4c-0.1,1.6-0.1,3.3,0,5c0.1,3-1.2,5.1-4.2,5.5c-2.8,0.4-5.8,0.7-8.5,0.2
	c-4.1-0.7-5.9-3.7-6.5-9.6c-0.2-1.5-0.4-3-0.6-4.5c-0.6-3.3-2.5-5.4-5.9-5.9c-2.6-0.4-5.3-0.6-8-0.7c-11.2-0.6-22.4-1.4-33.6-1.7
	c-10.8-0.3-21.6-0.1-32.4-0.3c-5-0.1-10.1,0-15.1-0.6c-6.1-0.7-8.8-4.1-9.1-10.1c-0.4-8.8-0.8-17.7-1.2-26.5
	c-0.3-6.5-3.5-9.7-10.1-9.7c-4.1,0-8.2,0.2-12.3,0.7c-3.7,0.5-5.8,3-6.1,6.7c-0.2,2.8-0.4,5.5-0.6,8.3c-0.2,3.3-1.6,5.3-4.9,5.8
	c-2.8,0.4-5.8,0.4-8.6,0c-3.4-0.5-5.4-3-5.6-7.1c-0.6-8.8-1.1-17.7-1.2-26.5c-0.1-8.3,0.4-16.7,0.5-25c0.1-7.7-2.8-10.3-9.8-10
	c-3.9,0.2-7.8,0-11.8,0c-5.8,0.1-8.8,2.7-8.7,8.4c0.2,10.9,0.7,21.8,1.2,32.7c0.3,7.6,0.7,15.2,1.3,22.8c0.6,6.7,1.5,13.4,2.3,20.2
	c0.8,6.9,1.7,13.8,2.7,20.7c0.4,2.9,1.1,5.8,1.9,8.7c1,3.6,3.7,5.7,7.4,6c5.1,0.4,10.3,0.6,15.4,0.6c21.1,0.1,42.3-0.2,63.4,0.1
	c15.4,0.2,30.8,1.1,46.3,1.8c8.4,0.4,12.2,4.7,12.9,13c0.8,9.4,1.9,18.8,3.1,28.1c0.6,4.7,4.3,7.5,9.6,7.8
	c11.2,0.6,22.4,1.2,33.6,1.9c10.5,0.6,20.9,1.3,31.4,1.8c5,0.2,7.3-2.5,7-7.4c-0.5-9.4-0.8-18.7-1.1-28.1c-0.1-2,0.2-4.1,0.6-6.1
	c0.5-2.5,2.4-4.3,4.9-4.6c4.9-0.5,9.8-0.7,14.8-0.6c4.4,0,8.8,0.8,13.2,0.8c27,0,54,0.1,81.1-0.2c9.4-0.1,18.7-0.9,28-1.3
	c7.8-0.3,15.7-0.5,23.5-0.7c3.4-0.1,5.4,1.8,6.2,4.9c0.5,1.7,0.8,3.4,0.9,5.2c0.4,5.6-1.6,8.1-7.2,8.5c-9.7,0.8-19.5,1.5-29.2,1.8
	c-11.5,0.4-23,0.5-34.6,0.7c-14.2,0.2-28.4,0.5-42.6,0.6c-4.1,0-8.2-1-12.3-1c-7,0-14,0.1-21,0.6c-4,0.2-6.5,2.8-6.5,6.8
	c0,6.2,0.7,12.5,0.8,18.7c0.1,5.6,0,11.3-0.3,16.9c-0.2,2.7-2.5,4.3-4.9,4.4c-8.5,0.2-17,0-25.5-0.2c-1.5,0-3.1-0.2-4.6-0.3
	c-12.6-0.8-25.2-1.6-37.8-2.4c-4.8-0.3-9.7-0.6-14.5-0.7c-7.3-0.1-9.4,2.1-8.5,9.2c0.4,3.6,1.2,7.2,2.1,10.8c2.1,7.9,5.7,8.4,12.4,9
	c10.4,1,20.9,1.7,31.3,2.4c8.2,0.6,16.4,1.1,24.6,1.3c14.2,0.4,28.4,0.5,42.7,0.6c2.4,0,4.9-0.3,7.3-0.6c4.1-0.5,6.4-2.8,6.3-6.9
	c-0.2-8.2-0.8-16.4-1-24.7c-0.1-3.6,0.2-7.2,0.8-10.7c0.5-3.1,3.2-4.7,6.7-4.8c4.7,0,9.5,0.1,14.2,0c7.2-0.3,14.3-0.9,21.5-1.1
	c7.2-0.2,14.4,0.2,21.6-0.1c13.1-0.6,26.3-1.5,39.4-2.3c9.1-0.6,18.2-1.2,27.3-2c6.9-0.6,13.9-1.5,20.8-2.2
	c7.9-0.8,15.7-1.8,23.6-2.3c5.7-0.4,7.8,1.8,8.1,8.6c0.3,6.1-0.8,9.5-8.7,10.2c-10.4,1-20.8,2.4-31.1,3.5c-4.9,0.5-9.8,0.9-14.7,1.3
	c-8.4,0.8-16.7,1.7-25.1,2.4c-6.6,0.6-13.1,1-19.7,1.3c-7.8,0.5-15.6,1-23.4,1.2c-6.6,0.1-13.2-0.5-19.8-0.5
	c-4.5,0.1-9,0.7-13.5,1.3c-4.6,0.7-7.9,3.1-8.1,8.1c-0.2,4.1-0.6,8.3,0,12.3c1.2,7.4,4.2,8.2,10.7,8.4c7.3,0.3,14.6-0.5,21.9-0.9
	c7.2-0.4,14.4-0.9,21.5-1.4c8.4-0.7,16.7-1.6,25.1-2.3c5.9-0.5,11.9-0.8,17.8-1.4c6.4-0.6,12.8-1.5,19.2-2.2
	c6.1-0.7,12.2-1.3,18.3-2.1c7.7-1,15.4-2.1,23.1-3.2c10.3-1.5,20.6-3.2,30.9-4.8c12.3-2,24.6-4,36.9-6c7.4-1.2,14.8-2.4,22.2-3.2
	c4.4-0.5,7,1.6,7.7,5c1,4.9-0.5,8.6-5.1,9.8c-6.3,1.8-12.8,3-19.2,4.2c-16.4,3.1-32.7,6.3-49.1,9.1c-15,2.6-30.1,4.7-45.2,7
	c-9.6,1.5-19.2,2.9-28.9,4.2c-7.9,1-15.9,1.8-23.8,2.6c-9.5,1-19,2.1-28.5,2.9c-6.6,0.5-13.2,0.4-19.7,0.8
	c-7.8,0.5-15.5,1.2-23.3,1.7c-3.2,0.2-6.4,0-9.6,0c-7,0-14,0-21,0c-8.8,0-17.5,0-26.3,0c-5.6,0-11.1,0.3-16.6,0
	c-11.8-0.6-23.6-1.5-35.3-2.3c-6.8-0.5-13.5-0.8-20.3-1.4c-8.5-0.7-17-1.4-25.5-2.2c-3.2-0.3-6.3-0.6-9.5-0.9
	c-4.5-0.5-7-3.2-7.8-7.5c-1.3-7.3-2.5-14.7-3.7-22c-1.2-7.3-2.3-14.5-3.3-21.8c-1.2-8.7-2.3-17.4-3.5-26.1c-0.7-4.5-1.5-9-2.4-13.5
	c-0.6-3.2-3-4.8-5.9-5.5c-2-0.4-4.1-0.7-6.1-0.7c-28-0.5-56.1-0.9-84.1-1.2c-12.4-0.1-24.8,0-37.1,0c-6.1,0-8.9-1.9-10.3-7.9
	c-1.5-6.6-2.6-13.4-3.8-20.1c-1.3-8-2.5-16-3.6-24c-0.8-6.2-1.5-12.4-2-18.6c-0.8-10.1-1.4-20.3-1.9-30.5
	c-0.4-9.3-0.5-18.5-0.6-27.8c-0.1-7.6-2.9-10.5-10.5-10.4c-4.2,0-8.4,0.2-12.6,0.6c-3.9,0.5-6,3-6,6.9c-0.1,8.7-0.4,17.5,0.1,26.2
	c0.6,9.8,2.1,19.6,2.9,29.4c2.6,31.5,9.6,62.1,18,92.4c2.5,8.9,3.6,12,15.2,11.6c14.6-0.5,29.3-1.9,43.8-1
	c22.4,1.3,44.7,0.3,67.1,1.2c9.9,0.4,11.3,3.2,13.2,12.9c4.6,23.2,9.1,46.4,14,69.5c3.2,14.9,7.3,29.5,10.7,44.3
	c1.6,7,5.9,11,12.6,12.8c14.5,4,29,7.7,44,9.4c11.1,1.2,22.3,1.9,33.4,3.2c24.2,2.8,48.5,2.6,72.8,2.3c10.7-0.1,21.3-1,32-1.8
	c6.3-0.5,9.3-4.1,9-10.4c-0.2-3.8-0.7-7.6-1.4-11.3c-0.8-4.5-3.8-6.8-8.5-6.7c-5.8,0.2-11.5,0.8-17.2,0.9
	c-10.1,0.2-20.1,0.2-30.2,0.4c-8,0.1-16.1,0.7-24.1,0.5c-12.6-0.5-25.2-1.5-37.8-2.3c-9.5-0.6-19.1-1.2-28.6-1.9
	c-1.9-0.1-3.9-0.4-5.8-0.8c-4.8-1.2-6.7-4.4-5.7-9.3c0.1-0.4,0.2-0.8,0.3-1.2c1.2-8,4.3-10,12.3-8.8c5.7,0.9,11.5,1.2,17.2,1.5
	c12.8,0.7,25.7,0.7,38.5,2.1c11.3,1.3,22.6,1.9,33.9,1.6c10-0.3,19.9-1.3,29.8-1.7c12-0.6,24.1-0.9,36.1-1.3
	c5.8-0.2,8.4,2.4,8.7,8.3c0.8,15.5,1.6,31,2.4,46.5c0.1,2.3-0.2,4.7-0.6,7.1c-0.5,2.7-3.4,4.7-7.1,4.9c-17.7,1.1-35.3,2-53,3.1
	c-4.2,0.3-8.4,1.3-12.5,1.2c-7-0.1-13.9-0.7-20.9-1.1c-0.9-0.1-1.9-0.1-2.8-0.1c-13-0.6-25.9-1.1-38.9-1.9
	c-9.7-0.6-19.5-1.2-29.1-2.5c-15.9-2.2-31.6-5.3-47-10c-5.7-1.7-11.2-3.8-17-5.2c-7.7-1.9-11.2-6.9-12.6-14.4
	c-2.4-12.6-5.5-25.1-8.3-37.6c-3.8-17-7.7-34-11.4-51c-1.7-7.9-2.9-15.8-4.5-23.7c-1.2-5.9-4.3-8.3-10.3-8.4c-2.3,0-4.5,0-6.8,0
	c-6.5,0-9.5,3.3-8.1,9.5c7.1,31.5,14.4,63,24.8,93.7c1.3,3.8,2.3,7.8,2.8,11.8c0.4,3.3-1.7,5.1-4.9,4.5c-2.6-0.4-5.2-1.3-7.5-2.5
	c-12.3-6.3-24.6-12.7-36.7-19.3c-6.5-3.6-7.1-6-4.2-12.9c0.7-1.8,1.4-3.6,2.1-5.4c1.6-4.5,3.9-6.2,8.6-6.4c0.3,0,0.6,0,0.9,0
	c6.7-0.1,9-3.1,7.4-9.4c-2.6-10.2-5.4-20.3-7.8-30.5c-1.8-7.3-3.2-14.8-4.7-22.2c-2.2-10.8-4.2-11.4-14.4-12.1
	c-4.2-0.3-8.4,0.5-12.6,0.5c-10.3,0.1-20.6,0-31,0c-6.6,0-8.8,2.8-6.5,9.1c2.4,6.8,5.3,13.5,7.9,20.3c1.4,3.7,3.2,7.3,4,11.2
	c0.8,4.1-0.9,6.2-4.8,7.8c-5.8,2.4-10.4,1.5-14.7-3.5c-7.2-8.2-14.3-16.5-21.2-25c-11.3-13.8-20.9-28.7-29.6-44.3
	c-9.1-16.3-16.4-33.5-22.6-51.1c-0.5-1.3-0.8-2.8-1.1-4.2c-0.6-3.6,0.9-6.5,4.6-7.1c3.3-0.6,6.7-0.8,10-0.4c3.1,0.4,4.6,3.2,5.6,6
	c2.7,7.5,4.9,15.2,8.2,22.4c5.4,11.7,11.5,23.1,17.3,34.6c0.1,0.3,0.3,0.6,0.5,0.8c1.2,0.8,2.4,1.5,3.7,2.2c0.4-1.5,1.3-3.1,1-4.4
	c-3-12.2-6.6-24.2-9.2-36.4c-3.2-15-5.7-30.1-8.4-45.1c-4.5-25.1-4.6-50.6-4.3-76c0-4.5,0.3-9.1,0.6-13.6c0.3-5.5,3.4-8.3,9.3-8.3
	c24.9,0,49.7,0,74.6,0c1.7,0,3.3,0,5,0c5.9,0,8.8-3,8.9-8.9c0.1-3.1,0.6-6.2,0.5-9.2c-0.3-7.2-2.9-9.7-10.2-9.7c-8.7,0-17.3,0-26,0
	c-21.5,0-42.9,0-64.4,0c-3.2,0-6.4,0.2-9.5,0.7c-3,0.4-5.5,2-6.2,5.2c-1.4,6.5-3,13-3.6,19.5c-1,10.7-1.3,21.5-2,32.3
	c-0.2,3.1-1.6,5.6-4.9,6.2c-2.6,0.5-5.2,1.2-7.9,1.3c-4.2,0.3-6.8-2.1-6.9-6.9c-0.1-7.1,0.2-14.2,0.8-21.3
	c0.7-8.3,1.6-16.5,2.9-24.7c1.4-8.7,3.1-17.3,5-25.9c1.1-4.7,4.5-7.1,9.3-6.8c6.5,0.3,13.1,1,19.6,1.5c1.2,0.1,2.5,0.3,3.7,0.3
	c30.2,0,60.5,0,90.7,0c2.1,0,4.3-0.2,6.4-0.7c2.6-0.7,4.5-2.5,5-5.3c0.7-4.1,1.3-8.3,1.9-12.4c1.8-12.6,3.5-25.1,5.3-37.7
	c0.5-3.4,1.2-6.9,1.5-10.3c0.4-4.8-2.3-7.7-7.7-7.8c-6.6-0.2-13.2,0.1-19.8,0.1c-2.6,0-5.1,0.1-7.7-0.1c-4.4-0.3-6.5-2.5-5.7-6.8
	c1-5.2,2.3-10.4,3.9-15.4c8.1-25.8,16.5-51.5,24.6-77.3c1.8-5.8,5.5-9.9,10.6-13c31.1-19.3,64-34.6,99-44.9
	c12.5-3.7,25.3-6.5,38.1-9.4c5.6-1.2,10.5-0.3,10.4,8.5c-0.1,7.7-1.2,9.6-8.9,11.1c-18.1,3.7-36,8.3-53.3,14.7
	c-23.4,8.6-45.7,19.5-67.1,32.3c-5.6,3.3-9.7,7.8-11.8,14c-6.3,18.8-12.7,37.5-18.9,56.3c-0.5,1.5-0.8,3.2-0.8,4.8
	c0,3.9,2.8,5.9,8.1,5.9c6.7,0.1,13.4,0,20.1,0c1.8,0,3.7,0.3,5.5,0.6c2.9,0.6,4.7,2.3,4.3,5.4c-0.7,6.1-1.7,12.1-2.6,18.1
	c-1.6,10-3.2,19.9-4.8,29.9c-1.3,8.4-2.5,16.8-3.6,25.2c-0.8,6.3-1.5,12.6-2,18.9c-0.8,10.4-1.3,20.9-2,31.4c0,0.5-0.1,1-0.1,1.5
	c0.1,6.8,2.1,8.7,8.9,8.7c3.1,0,6.2,0,9.3,0c7.7,0,10.7-2.8,11.1-10.3c0.5-8.7,0.7-17.5,1.3-26.2c0.6-8.5,1.5-17,2.3-25.5
	c0.8-8.9,1.6-17.8,2.6-26.6c1-8.5,2.3-17,3.5-25.5c1.3-8.8,2.5-17.6,3.9-26.4c1.5-9.2,2.9-18.4,4.8-27.5c3.8-18.7,7.9-37.3,11.9-56
	c0.2-0.8,0.5-1.6,0.6-2.4c0.9-5.4,4.3-8.3,9.5-8.9c7-0.8,14.1-1.3,21.1-2c7.8-0.7,15.5-1.6,23.3-2.3c4.3-0.4,8.6-0.7,12.9-0.8
	c25.2-0.6,50.5-1.3,75.7-1.7c12.1-0.2,24.1-0.1,36.2,0.6c14.1,0.8,28.2,2.3,42.4,3.6c10.2,0.9,20.4,1.9,30.6,3.2
	c11.8,1.6,23.5,3.5,35.1,5.6c14.2,2.5,28.3,5.3,42.5,8c0.7,0.1,1.4,0.3,2.1,0.5c5.6,1.4,7.8,4,7.2,8.6c-0.8,6.3-3.6,9.3-9.6,8.8
	c-6.5-0.6-12.9-2.1-19.4-3.2c-11-1.8-22-3.6-33-5.4c-8-1.3-16-2.5-24-3.5c-8.5-1.1-17.1-1.8-25.7-2.7c-7.8-0.8-15.5-1.4-23.3-2.2
	c-0.7-0.1-1.4-0.2-2.1-0.3c-10.8-0.4-21.6-1.1-32.4-1.3c-14.6-0.2-29.2-0.1-43.9-0.2c-4.3,0-8.7-0.6-13-0.4
	c-11.8,0.5-23.6,1.2-35.4,1.8c-6,0.3-12,0.3-17.9,0.7c-11.4,0.7-22.7,1.5-34.1,2.5c-4.6,0.4-7.8,3.1-8.8,7.8
	c-2.1,9.8-4.2,19.5-6.2,29.3c-2.9,14.7-5.9,29.4-8.5,44.1c-1.8,10.4-3.1,20.8-4.5,31.3c-1.2,8.9-2.5,17.8-3.6,26.8
	c-0.8,7-1.4,14.1-2,21.1c-1,11.9-2.1,23.7-2.9,35.6c-0.4,5.2-0.3,10.5-0.1,15.8c0.1,3.1,3,5.5,6.8,5.4c5.6-0.1,11.3-0.4,16.8-1.2
	c5.3-0.8,7.7-4.2,7.9-9.4c0.4-11.2,0.6-22.4,1.3-33.6c0.7-11.4,1.9-22.7,3-34c1.2-11.8,2.5-23.6,3.7-35.5c0.8-7.5,1.6-15.1,2.5-22.6
	c0.4-3.8,2.7-6.1,6.6-6.5c6-0.5,12.1-0.9,18.1-1.3c11.9-0.8,23.8-1.7,35.7-2.4c7.9-0.5,15.8-0.9,23.7-1.3c9.7-0.5,19.3-0.9,29-1.2
	c5.2-0.2,7,1.3,7.6,6.3c0.3,2.6,0.3,5.3-0.1,7.9c-0.6,3.9-3.2,6-7.3,6.1c-8.2,0.3-16.5,0.3-24.7,0.7c-9,0.4-18.1,1.2-27.1,1.7
	c-9.2,0.5-18.5,0.9-27.8,1.4c-3.2,0.2-6.4,0.3-9.5,0.7c-4.9,0.7-7,3.8-7.8,10.6c-1.2,10.8-2.5,21.6-3.6,32.4
	c-0.6,6.4-0.9,12.9-1.3,19.4c-0.8,11.9-1.6,23.8-2.4,35.7c-0.2,3.3-0.5,6.6-0.6,9.9c-0.3,8.4-0.8,16.9-0.6,25.3
	c0.2,6.8-3.3,10.3-10.7,10.3c-10.4,0.1-20.8,0-31.3,0c-16.7,0-33.4,0-50.1,0c-5.8,0-8.4,2.4-8.3,8.2c0.1,3.9,0.1,7.8,0.7,11.7
	c0.9,5.6,4.1,8,9.8,8c26.4,0,52.8,0,79.2,0c12.4,0,24.8,0,37.1,0c5.3,0,8-2.3,8-7.5c0.2-10.8-0.1-21.6,0.2-32.4
	c0.4-15.1,1-30.2,1.5-45.3c0.1-4.1,0-8.3,0.2-12.4c0.6-13.2,1-26.3,1.9-39.5c0.4-5.9,3.9-7.7,10.8-8.2c7.6-0.6,15.2-0.4,22.9-0.8
	c8.2-0.4,16.4-1.2,24.6-1.7c0.4,0,0.8-0.1,1.2-0.1c17-0.4,34-1,51-1.2c8.6-0.1,17.3,0.7,25.9,1.2c4.7,0.3,6.6,2.5,6.5,7.2
	c0,2-0.3,4.1-0.8,6.1c-0.8,3.1-2.8,5.2-6.3,5.3c-4,0.1-8,0.5-12,0.5c-14.9-0.1-29.7-0.7-44.6-0.4c-16.4,0.4-32.9,1.5-49.3,2.3
	c-1.3,0.1-2.7-0.1-4,0.2c-5.9,1.2-7.7,3.7-7.9,11.6c-0.5,14.1-0.2,28.3-1.4,42.3c-2.3,27.9-0.1,55.8-1.1,83.7
	c-0.2,6.2-2.3,9.3-8.8,9.1c-20.2-0.4-40.4-0.6-60.6-0.7c-9-0.1-18.1-0.2-27.1,0.1c-4,0.1-7.6,1.9-7.5,7.5c0.1,3.8-0.1,7.6,0.1,11.4
	c0.2,4.4,3.3,7.8,7.7,8.2c3.3,0.3,6.5,0.6,9.8,0.6c12.2,0.3,24.3,0,36.5,0.7c16.6,1,33.1,2.1,49.7,1.8c3,0,6.1,1,9.1,1.1
	c6,0.2,11.9,0.1,17.9,0c4.5,0,7.3-2.5,7.3-7c0.1-14.5-0.1-29-0.1-43.6c0-8.8,0-17.5,0-26.3C1232.6,421,1232.8,421,1232.9,421z
	 M943.3,325.7c10.2,0,20.4,0.1,30.6,0c4.4-0.1,6.4-1.6,6.9-5.9c1.4-10.3-0.4-13.5-10.3-13.3c-8.1,0.2-16.3,0.5-24.4,0.6
	c-8.4,0.1-10.6-3.2-6.7-10.7c9.1-17.2,19.1-33.8,30.9-49.3c3.1-4,6.3-7.9,9.1-12.1c3.2-4.8,2.4-8.3-2.1-11.7
	c-4.3-3.3-7.9-3.1-11.8,0.7c-1.6,1.6-3.2,3.3-4.6,5c-18.4,21.9-33.4,46-45.8,71.8c-2.3,4.8-4.5,9.7-6.2,14.7c-2.1,6-0.1,8.9,6,10.1
	c0.9,0.2,1.8,0.1,2.8,0.1C926.2,325.7,934.7,325.7,943.3,325.7C943.3,325.7,943.3,325.7,943.3,325.7z"/>
<path class="st1" d="M1175.7,75.7c-478.2,87.8-401.2,656.7-17.4,709.4"/>
<g>
	<g>
		<linearGradient id="SVGID_2_" gradientUnits="userSpaceOnUse" x1="432.0052" y1="320.8678" x2="432.0052" y2="568.6705">
			<stop  offset="0" style="stop-color:#0876CA"/>
			<stop  offset="1" style="stop-color:#47E6FE"/>
		</linearGradient>
		<path class="st2" d="M98.3,558.4v-18.8c25.6,9.1,53.9,13.7,84.8,13.7c51.2,0,76.7-19.4,76.7-58.1c0-28.5-16.6-42.7-49.9-42.7
			h-50.2c-45.5,0-68.2-20.5-68.2-61.5c0-46.7,33.3-70.1,100-70.1c27.3,0,53.8,3.4,79.5,10.3v17.1c-25.6-8-52.1-12-79.5-12
			c-54.7,0-82,18.2-82,54.7c0,29.6,16.7,44.4,50.2,44.4h50.2c45.2,0,67.8,19.9,67.8,59.8c0,49-31.6,73.5-94.7,73.5
			C152.2,568.7,123.9,565.3,98.3,558.4z"/>
		<linearGradient id="SVGID_3_" gradientUnits="userSpaceOnUse" x1="432.0052" y1="320.8678" x2="432.0052" y2="568.6705">
			<stop  offset="0" style="stop-color:#0876CA"/>
			<stop  offset="1" style="stop-color:#47E6FE"/>
		</linearGradient>
		<path class="st3" d="M358.9,567V322.6h102.5c47.6,0,71.4,22.4,71.4,67.2c0,44.1-38.1,72.2-114.3,84.3l-3.1-16.4
			c64.9-9,97.4-31.2,97.4-66.5c0-35.1-18.1-52.6-54.3-52.6h-81.7V567H358.9z"/>
		<linearGradient id="SVGID_4_" gradientUnits="userSpaceOnUse" x1="432.0052" y1="320.8678" x2="432.0052" y2="568.6705">
			<stop  offset="0" style="stop-color:#0876CA"/>
			<stop  offset="1" style="stop-color:#47E6FE"/>
		</linearGradient>
		<path class="st4" d="M770.2,322.6V338H627.6v97.4h136.7v15.4H627.6v100.8h144.9V567H609.7V322.6H770.2z"/>
	</g>
</g>
<g>
	<g>
		<linearGradient id="SVGID_5_" gradientUnits="userSpaceOnUse" x1="1794.5377" y1="318.9733" x2="1794.5377" y2="563.358">
			<stop  offset="0" style="stop-color:#0876CA"/>
			<stop  offset="1" style="stop-color:#47E6FE"/>
		</linearGradient>
		<path class="st5" d="M1783.9,441.2L1687.7,319h21.4l85.4,108.7L1880,319h21.4l-96,122.2l96,122.2H1880l-85.4-108.7l-85.4,108.7
			h-21.4L1783.9,441.2z"/>
	</g>
</g>
<linearGradient id="SVGID_6_" gradientUnits="userSpaceOnUse" x1="85.8346" y1="408.0581" x2="1902.0035" y2="408.0581">
	<stop  offset="0" style="stop-color:#999999"/>
	<stop  offset="0.4832" style="stop-color:#C0C1C3"/>
	<stop  offset="1" style="stop-color:#BABABA"/>
</linearGradient>
<path class="st6" d="M1200.7,119.7c0,7.1-5.7,12.8-12.8,12.8c-7.1,0-12.8-5.7-12.8-12.8s5.7-12.8,12.8-12.8
	C1195,106.9,1200.7,112.7,1200.7,119.7z M981.3,208.1c-7.1,0-12.8,5.7-12.8,12.8s5.7,12.8,12.8,12.8s12.8-5.7,12.8-12.8
	S988.3,208.1,981.3,208.1z M980.7,302.1c-7.1,0-12.8,5.7-12.8,12.8c0,7.1,5.7,12.8,12.8,12.8s12.8-5.7,12.8-12.8
	C993.4,307.9,987.7,302.1,980.7,302.1z M895.2,423.9c-7.1,0-12.8,5.7-12.8,12.8c0,7.1,5.7,12.8,12.8,12.8c7.1,0,12.8-5.7,12.8-12.8
	C908,429.7,902.3,423.9,895.2,423.9z M907.4,501.3c-7.1,0-12.8,5.7-12.8,12.8c0,7.1,5.7,12.8,12.8,12.8s12.8-5.7,12.8-12.8
	C920.2,507,914.5,501.3,907.4,501.3z M1041.6,675.5c-7.1,0-12.8,5.7-12.8,12.8c0,7.1,5.7,12.8,12.8,12.8s12.8-5.7,12.8-12.8
	C1054.3,681.2,1048.6,675.5,1041.6,675.5z M992.8,641.5c-7.1,0-12.8,5.7-12.8,12.8s5.7,12.8,12.8,12.8s12.8-5.7,12.8-12.8
	S999.9,641.5,992.8,641.5z M1175.1,683.6c-7.1,0-12.8,5.7-12.8,12.8s5.7,12.8,12.8,12.8c7.1,0,12.8-5.7,12.8-12.8
	S1182.2,683.6,1175.1,683.6z M1559.7,608c-7.1,0-12.8,5.7-12.8,12.8c0,7.1,5.7,12.8,12.8,12.8c7.1,0,12.8-5.7,12.8-12.8
	C1572.5,613.8,1566.7,608,1559.7,608z M1470.2,581.2c-7.1,0-12.8,5.7-12.8,12.8s5.7,12.8,12.8,12.8s12.8-5.7,12.8-12.8
	S1477.2,581.2,1470.2,581.2z M1408.9,540.2c-7.1,0-12.8,5.7-12.8,12.8s5.7,12.8,12.8,12.8c7.1,0,12.8-5.7,12.8-12.8
	S1416,540.2,1408.9,540.2z M1645,408.2c-7.1,0-12.8,5.7-12.8,12.8c0,7.1,5.7,12.8,12.8,12.8c7.1,0,12.8-5.7,12.8-12.8
	C1657.8,413.9,1652,408.2,1645,408.2z M1385.7,345.6c-7.1,0-12.8,5.7-12.8,12.8c0,7.1,5.7,12.8,12.8,12.8c7.1,0,12.8-5.7,12.8-12.8
	C1398.5,351.3,1392.8,345.6,1385.7,345.6z M1323.4,295.2c-7.1,0-12.8,5.7-12.8,12.8c0,7.1,5.7,12.8,12.8,12.8
	c7.1,0,12.8-5.7,12.8-12.8C1336.2,300.9,1330.4,295.2,1323.4,295.2z M1257.4,247.7c-7.1,0-12.8,5.7-12.8,12.8
	c0,7.1,5.7,12.8,12.8,12.8s12.8-5.7,12.8-12.8C1270.2,253.5,1264.4,247.7,1257.4,247.7z M1442.1,177.2c-7.1,0-12.8,5.7-12.8,12.8
	s5.7,12.8,12.8,12.8c7.1,0,12.8-5.7,12.8-12.8S1449.2,177.2,1442.1,177.2z M1191.4,527.4c-7.1,0-12.8,5.7-12.8,12.8
	s5.7,12.8,12.8,12.8s12.8-5.7,12.8-12.8S1198.5,527.4,1191.4,527.4z M1036.9,478.7c-7.1,0-12.8,5.7-12.8,12.8
	c0,7.1,5.7,12.8,12.8,12.8s12.8-5.7,12.8-12.8C1049.7,484.4,1044,478.7,1036.9,478.7z M784.2,329.9c0,7.1-5.7,12.8-12.8,12.8
	s-12.8-5.7-12.8-12.8c0-7.1,5.7-12.8,12.8-12.8S784.2,322.9,784.2,329.9z M784.2,444.2c0,7.1-5.7,12.8-12.8,12.8
	s-12.8-5.7-12.8-12.8c0-7.1,5.7-12.8,12.8-12.8S784.2,437.1,784.2,444.2z M786.8,558.5c0,7.1-5.7,12.8-12.8,12.8
	c-7.1,0-12.8-5.7-12.8-12.8c0-7.1,5.7-12.8,12.8-12.8C781.1,545.7,786.8,551.4,786.8,558.5z M431.2,465.9c0,7.1-5.7,12.8-12.8,12.8
	c-7.1,0-12.8-5.7-12.8-12.8c0-7.1,5.7-12.8,12.8-12.8C425.5,453.1,431.2,458.8,431.2,465.9z M381.1,564.4c0,7.1-5.7,12.8-12.8,12.8
	c-7.1,0-12.8-5.7-12.8-12.8s5.7-12.8,12.8-12.8C375.4,551.6,381.1,557.4,381.1,564.4z M111.4,548.7c0,7.1-5.7,12.8-12.8,12.8
	s-12.8-5.7-12.8-12.8c0-7.1,5.7-12.8,12.8-12.8S111.4,541.6,111.4,548.7z M285.9,341.3c0,7.1-5.7,12.8-12.8,12.8
	c-7.1,0-12.8-5.7-12.8-12.8c0-7.1,5.7-12.8,12.8-12.8C280.2,328.5,285.9,334.2,285.9,341.3z M1710.4,560.3c0,7.1-5.7,12.8-12.8,12.8
	c-7.1,0-12.8-5.7-12.8-12.8c0-7.1,5.7-12.8,12.8-12.8C1704.6,547.5,1710.4,553.2,1710.4,560.3z M1902,560.3
	c0,7.1-5.7,12.8-12.8,12.8c-7.1,0-12.8-5.7-12.8-12.8c0-7.1,5.7-12.8,12.8-12.8C1896.3,547.5,1902,553.2,1902,560.3z M1710.4,319
	c0,7.1-5.7,12.8-12.8,12.8c-7.1,0-12.8-5.7-12.8-12.8c0-7.1,5.7-12.8,12.8-12.8C1704.6,306.2,1710.4,311.9,1710.4,319z M1902,319
	c0,7.1-5.7,12.8-12.8,12.8c-7.1,0-12.8-5.7-12.8-12.8c0-7.1,5.7-12.8,12.8-12.8C1896.3,306.2,1902,311.9,1902,319z"/>
</svg>
